<?xml version="1.0" encoding="utf-8"?>
<svg version="1.1" id="Layer_1" xmlns="http://www.w3.org/2000/svg" xmlns:xlink="http://www.w3.org/1999/xlink" x="0px" y="0px"
	 viewBox="0 0 1000 1000" style="enable-background:new 0 0 1000 1000;" xml:space="preserve">
<style type="text/css">
	.st0{fill:#FFFFFF;stroke:#000000;stroke-width:30;stroke-linecap:round;stroke-linejoin:round;stroke-miterlimit:10;}
	.st1{fill:none;stroke:#000000;stroke-width:25;stroke-linecap:round;stroke-linejoin:round;stroke-miterlimit:10;}
	.st2{fill:none;stroke:#000000;stroke-width:20;stroke-linecap:round;stroke-linejoin:round;stroke-miterlimit:10;}
	.st3{fill:none;stroke:#000000;stroke-width:30;stroke-linecap:round;stroke-linejoin:round;stroke-miterlimit:10;}
</style>
<g>
	<g>
		<polyline class="st0" points="844,169.1 844,830.9 264,830.9 264,61.1 736,61.1 		"/>
		<line class="st1" x1="352" y1="154" x2="646" y2="154"/>
		<line class="st2" x1="348" y1="340.5" x2="754" y2="340.5"/>
		<line class="st2" x1="348" y1="441" x2="754" y2="441"/>
		<line class="st2" x1="348" y1="541.5" x2="754" y2="541.5"/>
		<line class="st2" x1="348" y1="642" x2="754" y2="642"/>
		<polyline class="st3" points="844,169.1 736,169.1 736,61.1 		"/>
		<line class="st3" x1="844" y1="169.1" x2="736" y2="61.1"/>
	</g>
	<g>
		<polyline class="st0" points="790,223.1 790,884.9 210,884.9 210,115.1 682,115.1 		"/>
		<line class="st1" x1="298" y1="208" x2="592" y2="208"/>
		<line class="st2" x1="294" y1="394.5" x2="700" y2="394.5"/>
		<line class="st2" x1="294" y1="495" x2="700" y2="495"/>
		<line class="st2" x1="294" y1="595.5" x2="700" y2="595.5"/>
		<line class="st2" x1="294" y1="696" x2="700" y2="696"/>
		<polyline class="st3" points="790,223.1 682,223.1 682,115.1 		"/>
		<line class="st3" x1="790" y1="223.1" x2="682" y2="115.1"/>
	</g>
	<g>
		<polyline class="st0" points="736,277.1 736,938.9 156,938.9 156,169.1 628,169.1 		"/>
		<line class="st1" x1="244" y1="262" x2="538" y2="262"/>
		<line class="st2" x1="240" y1="448.5" x2="646" y2="448.5"/>
		<line class="st2" x1="240" y1="549" x2="646" y2="549"/>
		<line class="st2" x1="240" y1="649.5" x2="646" y2="649.5"/>
		<line class="st2" x1="240" y1="750" x2="646" y2="750"/>
		<polyline class="st3" points="736,277.1 628,277.1 628,169.1 		"/>
		<line class="st3" x1="736" y1="277.1" x2="628" y2="169.1"/>
	</g>
</g>
</svg>
